<?xml version="1.0" encoding="utf-8"?>
<!-- Generator: Adobe Illustrator 16.0.4, SVG Export Plug-In . SVG Version: 6.00 Build 0)  -->
<!DOCTYPE svg PUBLIC "-//W3C//DTD SVG 1.1//EN" "http://www.w3.org/Graphics/SVG/1.1/DTD/svg11.dtd">
<svg version="1.1" id="Capa_1" xmlns="http://www.w3.org/2000/svg" xmlns:xlink="http://www.w3.org/1999/xlink" x="0px" y="0px"
	 width="80px" height="80px" viewBox="0 0 80 80" enable-background="new 0 0 80 80" xml:space="preserve">
<g id="mouse">
	<path fill="#000333" d="M40,20c-6.214,0-11.25,5.036-11.25,11.25v17.5C28.75,54.964,33.786,60,40,60s11.25-5.036,11.25-11.25v-17.5
		C51.25,25.036,46.214,20,40,20z M48.75,48.75c0,4.832-3.918,8.75-8.75,8.75c-4.833,0-8.75-3.918-8.75-8.75v-17.5
		c0-4.833,3.917-8.75,8.75-8.75c4.832,0,8.75,3.917,8.75,8.75V48.75z M40,26.25c-0.69,0-1.25,0.56-1.25,1.25v6.25
		c0,0.691,0.56,1.25,1.25,1.25c0.691,0,1.25-0.559,1.25-1.25V27.5C41.25,26.81,40.691,26.25,40,26.25z"/>
</g>
</svg>
